<?xml version="1.0" encoding="UTF-8"?>
<svg width="22px" height="22px" viewBox="0 0 22 22" version="1.1" xmlns="http://www.w3.org/2000/svg" xmlns:xlink="http://www.w3.org/1999/xlink">
    <title>上一个-点击备份</title>
    <g id="上一个-点击备份" stroke="none" stroke-width="1" fill="none" fill-rule="evenodd">
        <g id="编组-20备份">
            <rect id="矩形" x="0" y="0" width="22" height="22"></rect>
            <path d="M20.25,0.25 C21.0784271,0.25 21.75,0.921572875 21.75,1.75 L21.75,20.25 C21.75,21.0784271 21.0784271,21.75 20.25,21.75 L1.75,21.75 C0.921572875,21.75 0.25,21.0784271 0.25,20.25 L0.25,1.75 C0.25,0.921572875 0.921572875,0.25 1.75,0.25 Z M20.25,1.75 L1.75,1.75 L1.75,20.25 L20.25,20.25 L20.25,1.75 Z M12.9064177,5.77052216 L13.5935823,6.62947784 C13.6487906,6.69847433 13.6508823,6.79282306 13.6053494,6.86313166 L13.5623407,6.91058215 L8.45,11 L13.5623407,15.0894179 C13.6313511,15.1446089 13.6541074,15.236196 13.625123,15.3147864 L13.5935823,15.3705222 L12.9064177,16.2294778 C12.8374158,16.3157302 12.7115573,16.3297145 12.625305,16.2607126 L6.63506584,11.4685213 C6.37630866,11.2615156 6.33435584,10.8839401 6.54136157,10.625183 C6.56904063,10.5905841 6.60046701,10.5591578 6.63506584,10.5314787 L12.625305,5.7392874 C12.7115573,5.67028549 12.8374158,5.68426977 12.9064177,5.77052216 Z" id="形状结合" fill-opacity="0.85" fill="#FFFFFF" fill-rule="nonzero"></path>
        </g>
    </g>
</svg>