<?xml version="1.0" encoding="UTF-8"?>
<svg width="16px" height="16px" viewBox="0 0 16 16" version="1.1" xmlns="http://www.w3.org/2000/svg" xmlns:xlink="http://www.w3.org/1999/xlink">
    <title>矩形</title>
    <g id="页面-1" stroke="none" stroke-width="1" fill="none" fill-rule="evenodd">
        <g id="banner-按钮修改" transform="translate(-518.000000, -277.000000)" fill-rule="nonzero">
            <g id="compose-application-(2)" transform="translate(518.000000, 277.000000)">
                <rect id="矩形" fill="#000000" opacity="0" x="0" y="0" width="16" height="16"></rect>
                <path d="M6.205,1.99 L2.989,1.99 C2.43710581,1.99055189 1.99,2.43810554 1.99,2.99 L1.99,6.205 C1.99055189,6.75689419 2.43810554,7.204 2.99,7.204 L6.205,7.204 C6.75689419,7.20344811 7.204,6.75589446 7.204,6.204 L7.204,2.99 C7.20344811,2.43810581 6.75589446,1.99099972 6.204,1.991 L6.205,1.99 Z M6.205,6.205 L2.989,6.205 L2.989,2.989 L6.205,2.989 L6.205,6.205 Z M14.368,3.891 L12.094,1.617 C11.7036149,1.22728406 11.0713851,1.22728406 10.681,1.617 L8.407,3.89 C8.01794911,4.28026975 8.01794911,4.91173025 8.407,5.302 L10.681,7.576 C11.0713851,7.96571594 11.7036149,7.96571594 12.094,7.576 L14.368,5.302 C14.7570509,4.91173025 14.7570509,4.28026975 14.368,3.89 L14.368,3.891 Z M13.661,4.597 L11.387,6.871 L9.114,4.597 L11.387,2.323 L13.662,4.597 L13.661,4.597 L13.661,4.597 Z M6.205,8.718 L2.989,8.718 C2.43710581,8.71855189 1.99,9.16610554 1.99,9.718 L1.99,12.933 C1.99055189,13.4848942 2.43810554,13.932 2.99,13.932 L6.205,13.932 C6.75689419,13.9314481 7.204,13.4838945 7.204,12.932 L7.204,9.718 C7.20344811,9.16610581 6.75589446,8.71899972 6.204,8.719 L6.205,8.718 Z M6.205,12.933 L2.989,12.933 L2.989,9.717 L6.205,9.717 L6.205,12.933 Z M12.995,8.718 L9.78,8.718 C9.22771525,8.718 8.78,9.16571525 8.78,9.718 L8.78,12.933 C8.78055189,13.4848942 9.22810554,13.932 9.78,13.932 L12.995,13.932 C13.5472847,13.932 13.995,13.4842847 13.995,12.932 L13.995,9.718 C13.9944481,9.16610581 13.5468945,8.71899972 12.995,8.719 L12.995,8.718 Z M12.995,12.933 L9.78,12.933 L9.78,9.717 L12.995,9.717 L12.995,12.933 L12.995,12.933 Z" id="形状" fill-opacity="0.85" fill="#FFFFFF"></path>
            </g>
        </g>
    </g>
</svg>