<?xml version="1.0" encoding="UTF-8"?>
<svg width="16px" height="16px" viewBox="0 0 16 16" version="1.1" xmlns="http://www.w3.org/2000/svg" xmlns:xlink="http://www.w3.org/1999/xlink">
    <title>circle-information</title>
    <defs>
        <rect id="path-1" x="0" y="0" width="16" height="16"></rect>
    </defs>
    <g id="页面-1" stroke="none" stroke-width="1" fill="none" fill-rule="evenodd">
        <g id="地理可视化" transform="translate(-356.000000, -433.000000)">
            <g id="编组-3" transform="translate(356.000000, 433.000000)">
                <mask id="mask-2" fill="white">
                    <use xlink:href="#path-1"></use>
                </mask>
                <g id="矩形"></g>
                <path d="M7.3032366,1.0351094 C10.8814784,0.677406199 14.1485924,3.08923392 14.860487,6.61397374 C15.5723816,10.1387136 13.4974002,13.6293851 10.060791,14.688341 C6.62418181,15.7472969 2.94424682,14.029944 1.54863323,10.7158852 C1.18530034,9.8564357 0.998720304,8.9326387 1.00000661,7.9995525 C1.00000661,4.40364704 3.72499482,1.39281259 7.3032366,1.0351094 Z M11.1986876,3.18368374 C8.90036903,1.6474602 5.83687167,1.94863306 3.88174781,3.90301312 C2.79135435,4.98696994 2.17996344,6.46209001 2.18384246,7.9995525 C2.18321111,10.7639228 4.1355043,13.1437836 6.84677072,13.6836761 C9.55803715,14.2235687 12.2731302,12.7731213 13.3315722,10.2193885 C14.3900142,7.66565555 13.4970062,4.71990727 11.1986876,3.18368374 Z M8.39906139,6.95594741 C8.4769461,6.95594741 8.53925388,7.01171019 8.53925388,7.08055697 L8.53925388,11.4418917 C8.53925388,11.5107384 8.4769461,11.5665012 8.39906139,11.5665012 L7.55790644,11.5665012 C7.48002173,11.5665012 7.41771395,11.5107384 7.41771395,11.4418917 L7.41771395,7.08055697 C7.41771395,7.01171019 7.48002173,6.95594741 7.55790644,6.95594741 Z M7.97848392,4.33914659 C8.46024678,4.33914659 8.85079274,4.7296738 8.85079274,5.21141353 C8.85079274,5.69315326 8.46024678,6.08368047 7.97848392,6.08368047 C7.49672105,6.08368047 7.10617509,5.69315326 7.10617509,5.21141353 C7.10617509,4.7296738 7.49672105,4.33914659 7.97848392,4.33914659 Z" id="形状结合" fill-opacity="0.65" fill="#000000" fill-rule="nonzero" mask="url(#mask-2)"></path>
            </g>
        </g>
    </g>
</svg>