<?xml version="1.0" encoding="utf-8"?>
<!-- Generator: Adobe Illustrator 23.0.1, SVG Export Plug-In . SVG Version: 6.00 Build 0)  -->
<svg version="1.1" id="图层_1" xmlns="http://www.w3.org/2000/svg" xmlns:xlink="http://www.w3.org/1999/xlink" x="0px" y="0px"
	 viewBox="0 0 18 18" style="enable-background:new 0 0 18 18;" xml:space="preserve">
<style type="text/css">
	.st0{fill:#FFFFFF;}
</style>
<title>app store</title>
<desc>Created with Sketch.</desc>
<g id="页面-1">
	<g id="自定义预设-2" transform="translate(-1195.000000, -898.000000)">
		<g id="app-store" transform="translate(1192.000000, 895.000000)">
			<path id="形状" class="st0" d="M10.9,3.4H3.8c-0.2,0-0.4,0.2-0.4,0.4v7.1c0,0.2,0.2,0.4,0.4,0.4h7.1c0.2,0,0.4-0.2,0.4-0.4V3.8
				C11.2,3.5,11.1,3.4,10.9,3.4z M9.7,9.7H5V5h4.7V9.7z M20.2,3.4h-7.1c-0.2,0-0.4,0.2-0.4,0.4v7.1c0,0.2,0.2,0.4,0.4,0.4h7.1
				c0.2,0,0.4-0.2,0.4-0.4V3.8C20.6,3.5,20.5,3.4,20.2,3.4z M19,9.7h-4.7V5H19V9.7z M10.9,12.8H3.8c-0.2,0-0.4,0.2-0.4,0.4v7.1
				c0,0.2,0.2,0.4,0.4,0.4h7.1c0.2,0,0.4-0.2,0.4-0.4v-7.1C11.2,12.9,11.1,12.8,10.9,12.8z M9.7,19H5v-4.7h4.7V19z M20.2,12.8h-7.1
				c-0.2,0-0.4,0.2-0.4,0.4v7.1c0,0.2,0.2,0.4,0.4,0.4h7.1c0.2,0,0.4-0.2,0.4-0.4v-7.1C20.6,12.9,20.5,12.8,20.2,12.8z M19,19h-4.7
				v-4.7H19V19z"/>
		</g>
	</g>
</g>
</svg>
