<?xml version="1.0" encoding="utf-8"?>
<!-- Generator: Adobe Illustrator 23.0.2, SVG Export Plug-In . SVG Version: 6.00 Build 0)  -->
<svg version="1.0" id="图层_1" xmlns="http://www.w3.org/2000/svg" xmlns:xlink="http://www.w3.org/1999/xlink" height="48px" width="132px"
	 viewBox="0 0 132 48" enable-background="new 0 0 132 48" xml:space="preserve">
<title>LOGO</title>
<g>
	<rect id="矩形" fill="none" width="132" height="48"/>
	<path id="形状" fill-opacity="0.65" d="M52,18.2576v-1.0264c0.1195,0.1037,0.2628,0.197,0.4298,0.2799
		c0.167,0.0829,0.3428,0.1529,0.5274,0.21c0.1846,0.057,0.37,0.1011,0.5564,0.1322c0.1863,0.0311,0.3586,0.0467,0.5168,0.0467
		c0.5449,0,0.9519-0.0994,1.2208-0.2981c0.269-0.1987,0.4034-0.4847,0.4034-0.858c0-0.2004-0.0448-0.375-0.1345-0.5236
		c-0.0897-0.1486-0.2136-0.2843-0.3718-0.4069c-0.1582-0.1227-0.3454-0.2402-0.5616-0.3525l-0.6987-0.3551
		c-0.2637-0.1313-0.5098-0.2644-0.7383-0.3992c-0.2285-0.1348-0.4272-0.2834-0.5959-0.4458
		c-0.1688-0.1624-0.3015-0.3465-0.3982-0.5521c-0.0967-0.2056-0.145-0.4467-0.145-0.7232c0-0.3387,0.0756-0.6333,0.2268-0.8839
		c0.1512-0.2506,0.3498-0.4571,0.5959-0.6195c0.2461-0.1624,0.5265-0.2834,0.8411-0.3629C53.989,11.0397,54.3098,11,54.6368,11
		c0.7453,0,1.2885,0.0881,1.6295,0.2644v0.9798c-0.4465-0.3041-1.0196-0.4562-1.7192-0.4562c-0.1934,0-0.3867,0.0199-0.5801,0.0596
		s-0.3656,0.1045-0.5168,0.1944c-0.1512,0.0899-0.2742,0.2056-0.3691,0.3473s-0.1424,0.3145-0.1424,0.5184
		c0,0.1901,0.036,0.3542,0.1081,0.4925s0.1784,0.2644,0.319,0.3784s0.312,0.2246,0.5142,0.3318l0.3263,0.1685l0.3724,0.184
		c0.2707,0.1313,0.5274,0.2696,0.7699,0.4147s0.4553,0.3059,0.6381,0.4821s0.3278,0.3715,0.4351,0.5858
		c0.1072,0.2143,0.1608,0.4597,0.1608,0.7361c0,0.3663-0.073,0.6765-0.2189,0.9305s-0.3428,0.4605-0.5906,0.6195
		c-0.2479,0.159-0.5335,0.2739-0.857,0.3447s-0.6645,0.1063-1.0231,0.1063c-0.1195,0-0.2672-0.0095-0.443-0.0285
		c-0.1758-0.019-0.3551-0.0467-0.5379-0.0829c-0.1828-0.0363-0.356-0.0812-0.5194-0.1348
		C52.2294,18.3829,52.0984,18.3233,52,18.2576z M62.3415,18.5583h-0.8649v-0.8398h-0.0211
		c-0.3586,0.6428-0.9141,0.9642-1.6664,0.9642c-1.2868,0-1.9301-0.7534-1.9301-2.2602v-3.1726h0.8596v3.0378
		c0,1.1198,0.4359,1.6796,1.3078,1.6796c0.4219,0,0.7691-0.1529,1.0415-0.4588c0.2725-0.3059,0.4087-0.7059,0.4087-1.2001v-3.0586
		h0.8649V18.5583z M64.973,17.7911h-0.0211V21H64.087v-7.7501h0.8649v0.9331h0.0211c0.4254-0.705,1.0477-1.0575,1.8668-1.0575
		c0.6961,0,1.2393,0.2376,1.6295,0.7128c0.3902,0.4752,0.5854,1.112,0.5854,1.9103c0,0.8882-0.2197,1.5993-0.6592,2.1332
		c-0.4395,0.534-1.0406,0.8009-1.8036,0.8009C65.8923,18.6827,65.3527,18.3855,64.973,17.7911z M64.9519,15.6501v0.7413
		c0,0.4389,0.145,0.8113,0.4351,1.1172c0.29,0.3059,0.6583,0.4588,1.1048,0.4588c0.5238,0,0.9343-0.197,1.2314-0.591
		c0.2971-0.394,0.4456-0.9418,0.4456-1.6433c0-0.591-0.1389-1.0541-0.4166-1.3893s-0.6539-0.5029-1.1285-0.5029
		c-0.5027,0-0.9071,0.1719-1.2129,0.5158C65.1048,14.7005,64.9519,15.1317,64.9519,15.6501z M74.7765,16.1166h-3.8128
		c0.0141,0.591,0.1758,1.0472,0.4852,1.3686c0.3094,0.3214,0.7348,0.4821,1.2762,0.4821c0.6082,0,1.1672-0.197,1.677-0.591v0.7983
		c-0.4746,0.3387-1.1022,0.508-1.8827,0.508c-0.7629,0-1.3623-0.2411-1.7983-0.7232c-0.436-0.4821-0.6539-1.1604-0.6539-2.0347
		c0-0.826,0.2382-1.499,0.7146-2.0192c0.4764-0.5201,1.0679-0.7802,1.7746-0.7802s1.2534,0.2246,1.6401,0.6739
		c0.3867,0.4493,0.5801,1.0731,0.5801,1.8714V16.1166z M73.8906,15.3961c-0.0035-0.4908-0.1239-0.8726-0.3612-1.1457
		c-0.2373-0.273-0.5669-0.4095-0.9888-0.4095c-0.4078,0-0.7541,0.1434-1.0389,0.4303s-0.4606,0.6618-0.5274,1.1249H73.8906z
		 M78.9005,14.1104c-0.1512-0.114-0.3691-0.1711-0.6539-0.1711c-0.3691,0-0.6777,0.1711-0.9255,0.5132s-0.3718,0.8087-0.3718,1.3997
		v2.7061h-0.8649v-5.3085h0.8649v1.0938h0.0211c0.123-0.3733,0.3111-0.6644,0.5643-0.8735c0.2531-0.2091,0.5361-0.3136,0.849-0.3136
		c0.225,0,0.3973,0.0242,0.5168,0.0726V14.1104z M87.6651,18.5583h-0.8807v-4.987c0-0.394,0.0246-0.8761,0.0738-1.4463h-0.0211
		l-0.0815,0.3036c-0.0523,0.1812-0.1008,0.3203-0.1453,0.417l-2.584,5.7128h-0.4324l-2.5788-5.6713
		c-0.0738-0.1659-0.1494-0.4199-0.2268-0.7621h-0.0211c0.0281,0.2972,0.0422,0.7828,0.0422,1.4567v4.9767h-0.8543v-7.4339h1.1707
		l2.3204,5.184c0.1793,0.3974,0.2953,0.6947,0.3481,0.8917h0.0316l0.1412-0.3733c0.0875-0.2258,0.1617-0.4055,0.2227-0.5391
		l2.3678-5.1633h1.1075V18.5583z M93.4028,18.5583h-0.8649v-0.8294h-0.0211c-0.3762,0.6359-0.9299,0.9539-1.6612,0.9539
		c-0.5379,0-0.9589-0.14-1.263-0.4199c-0.3041-0.2799-0.4562-0.6515-0.4562-1.1146c0-0.9919,0.5942-1.569,1.7825-1.7315
		l1.619-0.2229c0-0.902-0.3709-1.353-1.1127-1.353c-0.6504,0-1.2375,0.2177-1.7614,0.6532v-0.8709
		c0.5309-0.3318,1.1426-0.4977,1.8352-0.4977c1.2692,0,1.9038,0.6601,1.9038,1.9803V18.5583z M92.5379,15.873l-1.3026,0.1763
		c-0.4008,0.0553-0.7031,0.1529-0.9071,0.2929s-0.3059,0.3879-0.3059,0.7439c0,0.2592,0.094,0.4709,0.2821,0.635
		c0.1881,0.1642,0.4386,0.2462,0.7515,0.2462c0.4289,0,0.7831-0.1477,1.0626-0.4432c0.2795-0.2955,0.4193-0.6696,0.4193-1.1223
		V15.873z M95.9183,17.7911h-0.0211V21h-0.8649v-7.7501h0.8649v0.9331h0.0211c0.4254-0.705,1.0477-1.0575,1.8668-1.0575
		c0.6961,0,1.2393,0.2376,1.6295,0.7128C99.8049,14.3135,100,14.9502,100,15.7486c0,0.8882-0.2197,1.5993-0.6592,2.1332
		c-0.4395,0.534-1.0406,0.8009-1.8036,0.8009C96.8376,18.6827,96.298,18.3855,95.9183,17.7911z M95.8972,15.6501v0.7413
		c0,0.4389,0.145,0.8113,0.4351,1.1172c0.29,0.3059,0.6583,0.4588,1.1048,0.4588c0.5238,0,0.9343-0.197,1.2314-0.591
		c0.2971-0.394,0.4456-0.9418,0.4456-1.6433c0-0.591-0.1389-1.0541-0.4166-1.3893c-0.2777-0.3352-0.6539-0.5029-1.1285-0.5029
		c-0.5027,0-0.9071,0.1719-1.2129,0.5158C96.0501,14.7005,95.8972,15.1317,95.8972,15.6501z"/>
	<path id="形状结合" fill-rule="evenodd" clip-rule="evenodd" fill="#FF483E" d="M20.1618,9.3715l14.3821,24.9284
		c0.6806,1.1797,0.2765,2.6878-0.9028,3.3692c-1.1784,0.6808-2.6855,0.2775-3.3663-0.9009L15.8927,11.8398
		c-0.6806-1.1797-0.2765-2.6878,0.9028-3.3692C17.9739,7.7898,19.481,8.1931,20.1618,9.3715z M28.621,9.2318l14.3821,24.9284
		c0.6806,1.1797,0.2765,2.6878-0.9028,3.3692c-1.1784,0.6808-2.6855,0.2775-3.3663-0.9009L24.3519,11.7001
		c-0.6806-1.1797-0.2765-2.6878,0.9028-3.3692C26.433,7.6501,27.9402,8.0534,28.621,9.2318z M19.7146,23.3983l6.1647,10.6852
		c0.6806,1.1797,0.2765,2.6878-0.9028,3.3692c-1.1784,0.6808-2.6855,0.2775-3.3663-0.9009l-6.1647-10.6852
		c-0.6806-1.1797-0.2765-2.6878,0.9028-3.3692C17.5267,21.8166,19.0338,22.2199,19.7146,23.3983z M9.5994,21.1714l7.3973,12.8217
		c0.6806,1.1797,0.2765,2.6878-0.9028,3.3692c-1.1784,0.6808-2.6855,0.2775-3.3663-0.9009L5.3302,23.6397
		C4.6496,22.46,5.0537,20.9519,6.233,20.2705C7.4114,19.5897,8.9185,19.993,9.5994,21.1714z"/>
	<g opacity="0.85">
		<path fill="#040000" d="M54.2527,23.5084c-0.2572-0.2296-0.5708-0.3444-0.9409-0.3444c-0.3575,0-0.6633,0.1148-0.9174,0.3444
			c-0.254,0.2296-0.3811,0.5165-0.3811,0.8609s0.127,0.6283,0.3811,0.8519c0.254,0.2235,0.5598,0.3353,0.9174,0.3353
			c0.3701,0,0.6837-0.1163,0.9409-0.3489c0.2572-0.2326,0.3858-0.512,0.3858-0.8383C54.6385,24.0249,54.5099,23.738,54.2527,23.5084
			z"/>
		<rect x="52.2109" y="27.5048" fill="#040000" width="2.1829" height="9.2797"/>
		<path fill="#040000" d="M58.6232,25.493c-1.3267,1.2808-1.99,2.9603-1.99,5.0386c0,1.9333,0.5896,3.495,1.7689,4.6852
			c1.1793,1.1902,2.7475,1.7853,4.7045,1.7853c1.5117,0,2.7757-0.2537,3.7919-0.7612v-1.9937c-0.9346,0.58-2.0386,0.87-3.312,0.87
			c-1.38,0-2.4934-0.4244-3.3402-1.2732c-0.8468-0.8488-1.2702-1.9891-1.2702-3.421c0-1.5043,0.4532-2.7066,1.3596-3.6068
			s2.0904-1.3503,3.5519-1.3503c1.0977,0,2.1014,0.2598,3.0109,0.7794v-2.1387c-0.8594-0.3564-1.9414-0.5347-3.2461-0.5347
			C61.6263,23.5718,59.9499,24.2122,58.6232,25.493z"/>
		<rect x="69.2132" y="23.0462" fill="#040000" width="2.1923" height="13.7383"/>
		<path fill="#040000" d="M76.2888,23.5084c-0.2572-0.2296-0.5708-0.3444-0.9409-0.3444c-0.3575,0-0.6633,0.1148-0.9174,0.3444
			c-0.2541,0.2296-0.3811,0.5165-0.3811,0.8609s0.127,0.6283,0.3811,0.8519c0.254,0.2235,0.5598,0.3353,0.9174,0.3353
			c0.3701,0,0.6837-0.1163,0.9409-0.3489c0.2572-0.2326,0.3858-0.512,0.3858-0.8383C76.6746,24.0249,76.546,23.7379,76.2888,23.5084
			z"/>
		<rect x="74.247" y="27.5048" fill="#040000" width="2.1829" height="9.2797"/>
		<path fill="#040000" d="M83.2986,27.2873c-1.3173,0-2.4197,0.4546-3.3073,1.3639c-0.8876,0.9092-1.3314,2.0858-1.3314,3.5297
			c0,1.5285,0.403,2.7141,1.2091,3.5569c0.806,0.8428,1.9179,1.2642,3.3355,1.2642c1.4427,0,2.6032-0.2658,3.4814-0.7975l0-1.6946
			c-0.8594,0.5921-1.8034,0.8881-2.8321,0.8881c-0.9158,0-1.6356-0.2326-2.1594-0.6978c-0.5238-0.4652-0.7982-1.1267-0.8233-1.9846
			h6.5675V31.909c0-1.45-0.3607-2.5827-1.082-3.3983C85.6352,27.6951,84.6159,27.2873,83.2986,27.2873z M80.871,31.2294
			c0.1004-0.7129,0.3685-1.2899,0.8045-1.7309c0.436-0.441,0.9676-0.6615,1.5948-0.6615c0.6398,0,1.1416,0.2099,1.5054,0.6298
			c0.3638,0.4199,0.5489,1.0074,0.5551,1.7626H80.871z"/>
		<path fill="#040000" d="M94.8718,27.2873c-1.3612,0-2.4025,0.586-3.1238,1.7581h-0.0376v-1.5406H89.518l0,9.2797l2.1923,0v-5.2923
			c0-0.731,0.2164-1.3367,0.6492-1.817s0.9817-0.7205,1.6466-0.7205c1.2734,0,1.91,0.867,1.91,2.6008l0,5.2289h2.1829v-5.6729
			c0-1.2385-0.276-2.1855-0.828-2.841C96.7191,27.6151,95.9193,27.2873,94.8718,27.2873z"/>
		<path fill="#040000" d="M103.5376,24.759l-2.1829,0.5981v2.1477l-1.609,0v1.6493h1.609v5.247
			c0,1.7279,0.9346,2.5918,2.8039,2.5918c0.6963,0,1.2577-0.1027,1.6842-0.3081v-1.6674c-0.2697,0.2054-0.5896,0.3081-0.9597,0.3081
			c-0.483,0-0.828-0.1178-1.035-0.3534c-0.207-0.2356-0.3105-0.6283-0.3105-1.1781v-4.6398h2.3052v-1.6493h-2.3052V24.759z"/>
		<path fill="#040000" d="M129.1549,25.2883c-1.5203-1.1783-3.4475-1.7758-5.728-1.7758l-4.209,0h-0.2492v0.2492l0,13.0228v0.2492
			h0.2492h4.0566c2.3844,0,4.3647-0.6329,5.8858-1.881c1.5359-1.2601,2.3147-2.9571,2.3147-5.0436
			C131.475,28.1036,130.6944,26.4816,129.1549,25.2883z M127.4877,33.7538c-0.9992,0.8583-2.42,1.2935-4.2228,1.2935l-1.8933,0
			l0-9.5398h1.9791c1.6944,0,3.0759,0.3959,4.106,1.1768c1.0229,0.7758,1.5201,1.9099,1.5201,3.467
			C128.9768,31.6931,128.4758,32.9052,127.4877,33.7538z"/>
		<path fill="#040000" d="M115.6319,30.8034c-0.4599-0.4185-1.0387-0.7189-1.7275-0.8976c1.4827-0.6126,2.2327-1.6975,2.2327-3.2352
			c0-1.0024-0.4175-1.8286-1.241-2.4555c-0.8026-0.6112-1.8722-0.9212-3.1791-0.9212c-1.3224,0-2.4979,0.2581-3.4938,0.7672
			l-0.1358,0.0694v0.1525v1.5554v0.4687l0.3886-0.2621c0.8679-0.5854,1.8045-0.8822,2.784-0.8822
			c2.2092,0,2.4647,1.0813,2.4647,1.8946c0,1.3936-1.0803,2.0711-3.3027,2.0711h-1.1713h-0.2492v0.2492v1.362v0.2492h0.2492h1.2284
			c2.5299,0,3.7597,0.727,3.7597,2.2224c0,0.6624-0.2582,1.1758-0.7894,1.5696c-0.5471,0.4054-1.3093,0.611-2.2656,0.611
			c-1.2127,0-2.3156-0.3333-3.2781-0.9908l-0.3898-0.2662v0.472v1.7068v0.1491l0.1314,0.0705
			c0.8895,0.477,2.0665,0.7189,3.4983,0.7189c1.6349,0,2.9683-0.3788,3.9634-1.126c1.017-0.7637,1.5326-1.7841,1.5326-3.0326
			C116.6417,32.1838,116.302,31.4133,115.6319,30.8034z"/>
	</g>
</g>
</svg>
