<?xml version="1.0" encoding="utf-8"?>
<!-- Generator: Adobe Illustrator 23.0.2, SVG Export Plug-In . SVG Version: 6.00 Build 0)  -->
<svg version="1.0" id="图层_1" xmlns="http://www.w3.org/2000/svg" xmlns:xlink="http://www.w3.org/1999/xlink" height="48px" width="132px"
	 viewBox="0 0 132 48" enable-background="new 0 0 132 48" xml:space="preserve">
<title>LOGO</title>
<g>
	<rect id="矩形" fill="none" width="132.0016" height="48"/>
	<path id="形状结合" fill-rule="evenodd" clip-rule="evenodd" fill="#FF483E" d="M20.1618,9.3715l14.3821,24.9284
		c0.6806,1.1797,0.2765,2.6878-0.9028,3.3692c-1.1784,0.6808-2.6855,0.2775-3.3663-0.9009L15.8927,11.8398
		c-0.6806-1.1797-0.2765-2.6878,0.9028-3.3692C17.9739,7.7898,19.481,8.1931,20.1618,9.3715z M28.621,9.2318l14.3821,24.9284
		c0.6806,1.1797,0.2765,2.6878-0.9028,3.3692c-1.1784,0.6808-2.6855,0.2775-3.3663-0.9009L24.3519,11.7001
		c-0.6806-1.1797-0.2765-2.6878,0.9028-3.3692C26.433,7.6501,27.9402,8.0534,28.621,9.2318z M19.7146,23.3983l6.1647,10.6852
		c0.6806,1.1797,0.2765,2.6878-0.9028,3.3692c-1.1784,0.6808-2.6855,0.2775-3.3663-0.9009l-6.1647-10.6852
		c-0.6806-1.1797-0.2765-2.6878,0.9028-3.3692C17.5267,21.8166,19.0338,22.2199,19.7146,23.3983z M9.5994,21.1714l7.3973,12.8217
		c0.6806,1.1797,0.2765,2.6878-0.9028,3.3692c-1.1784,0.6808-2.6855,0.2775-3.3663-0.9009L5.3302,23.6397
		C4.6496,22.46,5.0537,20.9519,6.233,20.2705C7.4114,19.5897,8.9185,19.993,9.5994,21.1714z"/>
	<g>
		<path fill="#FFFFFF" d="M59.7891,18.6827c0.7523,0,1.3078-0.3214,1.6664-0.9642h0.0211v0.8398h0.8649v-5.3085h-0.8649v3.0586
			c0,0.4942-0.1362,0.8942-0.4087,1.2001c-0.2724,0.3059-0.6196,0.4588-1.0415,0.4588c-0.8719,0-1.3078-0.5598-1.3078-1.6796
			v-3.0378H57.859v3.1726C57.859,17.9293,58.5023,18.6827,59.7891,18.6827z"/>
		<path fill="#FFFFFF" d="M66.8398,13.1255c-0.8191,0-1.4414,0.3525-1.8668,1.0575h-0.0211v-0.9331H64.087V21h0.8649v-3.2089h0.0211
			c0.3797,0.5944,0.9193,0.8916,1.6189,0.8916c0.763,0,1.3641-0.2669,1.8036-0.8009c0.4395-0.5339,0.6592-1.245,0.6592-2.1332
			c0-0.7983-0.1952-1.4351-0.5854-1.9103C68.0791,13.3631,67.5359,13.1255,66.8398,13.1255z M67.7232,17.3764
			c-0.2971,0.394-0.7076,0.591-1.2314,0.591c-0.4465,0-0.8148-0.1529-1.1048-0.4588c-0.2901-0.3059-0.4351-0.6783-0.4351-1.1172
			v-0.7413c0-0.5184,0.1529-0.9496,0.4589-1.2934c0.3058-0.3439,0.7102-0.5158,1.213-0.5158c0.4745,0,0.8508,0.1677,1.1285,0.5029
			s0.4166,0.7983,0.4166,1.3893C68.1688,16.4346,68.0203,16.9824,67.7232,17.3764z"/>
		<path fill="#FFFFFF" d="M55.9867,15.3597c-0.1828-0.1762-0.3956-0.337-0.6381-0.4821c-0.2426-0.1451-0.4992-0.2834-0.77-0.4147
			l-0.3724-0.184L53.88,14.1104c-0.2022-0.1072-0.3736-0.2178-0.5142-0.3318c-0.1406-0.114-0.2469-0.2401-0.319-0.3784
			s-0.1081-0.3024-0.1081-0.4925c0-0.2039,0.0475-0.3767,0.1424-0.5184c0.0949-0.1417,0.2179-0.2574,0.3691-0.3473
			s0.3234-0.1547,0.5168-0.1944c0.1934-0.0397,0.3867-0.0596,0.5801-0.0596c0.6996,0,1.2727,0.1521,1.7192,0.4562v-0.9798
			C55.9253,11.0881,55.3821,11,54.6368,11c-0.327,0-0.6478,0.0397-0.9624,0.1192c-0.3146,0.0795-0.595,0.2005-0.8411,0.3629
			c-0.2461,0.1624-0.4447,0.3689-0.5959,0.6195c-0.1512,0.2505-0.2268,0.5452-0.2268,0.8839c0,0.2766,0.0483,0.5176,0.145,0.7232
			c0.0967,0.2056,0.2294,0.3897,0.3982,0.5521c0.1687,0.1624,0.3674,0.311,0.5959,0.4458c0.2285,0.1348,0.4746,0.2679,0.7383,0.3992
			l0.6987,0.3551c0.2162,0.1123,0.4034,0.2298,0.5616,0.3525c0.1582,0.1226,0.2821,0.2583,0.3718,0.4069
			c0.0897,0.1486,0.1345,0.3232,0.1345,0.5236c0,0.3733-0.1344,0.6593-0.4034,0.858C54.9823,17.8006,54.5753,17.9,54.0304,17.9
			c-0.1582,0-0.3305-0.0156-0.5168-0.0468c-0.1864-0.0311-0.3718-0.0752-0.5564-0.1322c-0.1846-0.0571-0.3604-0.1271-0.5274-0.21
			S52.1195,17.3349,52,17.2312v1.0264c0.0984,0.0657,0.2294,0.1252,0.3927,0.1788c0.1634,0.0536,0.3366,0.0985,0.5194,0.1348
			c0.1828,0.0362,0.3621,0.0638,0.5379,0.0829c0.1758,0.019,0.3235,0.0285,0.443,0.0285c0.3586,0,0.6996-0.0355,1.0231-0.1063
			c0.3235-0.0708,0.6091-0.1857,0.857-0.3447c0.2478-0.1591,0.4447-0.3655,0.5906-0.6195c0.1459-0.254,0.2189-0.5642,0.2189-0.9305
			c0-0.2764-0.0536-0.5218-0.1608-0.7361C56.3145,15.7312,56.1695,15.5359,55.9867,15.3597z"/>
		<path fill="#FFFFFF" d="M74.4021,17.3763c-0.5098,0.394-1.0688,0.591-1.677,0.591c-0.5414,0-0.9668-0.1607-1.2762-0.4821
			c-0.3094-0.3214-0.4711-0.7776-0.4852-1.3687h3.8128h0.0001v-0.446c0-0.7983-0.1934-1.4221-0.5801-1.8714
			c-0.3867-0.4493-0.9333-0.6739-1.6401-0.6739c-0.7067,0-1.2982,0.2601-1.7746,0.7802c-0.4764,0.5202-0.7146,1.1932-0.7146,2.0192
			c0,0.8743,0.2179,1.5526,0.6539,2.0347c0.436,0.4821,1.0354,0.7232,1.7983,0.7232c0.7805,0,1.4081-0.1693,1.8827-0.508V17.3763z
			 M71.5017,14.2712c0.2848-0.2869,0.6311-0.4303,1.0389-0.4303c0.4219,0,0.7515,0.1365,0.9888,0.4095
			c0.2373,0.2731,0.3577,0.6548,0.3612,1.1457h-2.9163C71.0411,14.933,71.2169,14.5581,71.5017,14.2712z"/>
		<path fill="#FFFFFF" d="M78.9005,13.2291c-0.1195-0.0484-0.2918-0.0726-0.5168-0.0726c-0.3129,0-0.5959,0.1045-0.849,0.3136
			c-0.2532,0.2091-0.4413,0.5002-0.5643,0.8735h-0.0211v-1.0938h-0.8649v5.3085h0.8649v-2.7061c0-0.591,0.124-1.0576,0.3718-1.3997
			s0.5564-0.5132,0.9255-0.5132c0.2848,0,0.5027,0.0571,0.6539,0.1711V13.2291z"/>
		<path fill="#FFFFFF" d="M90.8556,18.6828c0.7313,0,1.285-0.318,1.6612-0.9539h0.0211v0.8294h0.8649v-3.4525
			c0-1.3202-0.6346-1.9803-1.9038-1.9803c-0.6926,0-1.3043,0.1659-1.8352,0.4977v0.8708c0.5239-0.4355,1.111-0.6532,1.7614-0.6532
			c0.7418,0,1.1127,0.451,1.1127,1.353l-1.619,0.2229c-1.1883,0.1625-1.7825,0.7396-1.7825,1.7315
			c0,0.4631,0.1521,0.8347,0.4562,1.1146C89.8967,18.5428,90.3177,18.6828,90.8556,18.6828z M90.3282,16.3422
			c0.204-0.14,0.5063-0.2376,0.9071-0.2929l1.3025-0.1763v0.5288c0,0.4527-0.1398,0.8268-0.4193,1.1223
			c-0.2795,0.2955-0.6337,0.4432-1.0626,0.4432c-0.3129,0-0.5634-0.082-0.7515-0.2462c-0.188-0.1641-0.282-0.3758-0.282-0.6349
			C90.0223,16.7301,90.1242,16.4822,90.3282,16.3422z"/>
		<path fill="#FFFFFF" d="M99.4146,13.8383c-0.3902-0.4752-0.9334-0.7128-1.6295-0.7128c-0.8191,0-1.4414,0.3525-1.8668,1.0575
			h-0.0211v-0.9331h-0.8649V21h0.8649v-3.2089h0.0211c0.3797,0.5944,0.9193,0.8916,1.619,0.8916
			c0.7629,0,1.3641-0.2669,1.8036-0.8009C99.7803,17.3479,100,16.6368,100,15.7486C100,14.9502,99.8049,14.3135,99.4146,13.8383z
			 M98.6685,17.3764c-0.2971,0.394-0.7076,0.591-1.2314,0.591c-0.4465,0-0.8148-0.1529-1.1048-0.4588
			c-0.2901-0.3059-0.4351-0.6783-0.4351-1.1172v-0.7413c0-0.5184,0.1529-0.9496,0.4589-1.2934
			c0.3058-0.3439,0.7102-0.5158,1.2129-0.5158c0.4746,0,0.8508,0.1677,1.1285,0.5029s0.4166,0.7983,0.4166,1.3893
			C99.1141,16.4346,98.9656,16.9824,98.6685,17.3764z"/>
		<path fill="#FFFFFF" d="M84.1898,16.2878c-0.061,0.1336-0.1353,0.3133-0.2227,0.5391l-0.1412,0.3733h-0.0316
			c-0.0528-0.197-0.1688-0.4943-0.3481-0.8917l-2.3204-5.184h-1.1707v7.4339h0.8543v-4.9767c0-0.674-0.0141-1.1595-0.0422-1.4567
			h0.0211c0.0774,0.3422,0.153,0.5962,0.2267,0.7621l2.5788,5.6713h0.4324l2.584-5.7128c0.0445-0.0967,0.093-0.2358,0.1453-0.417
			l0.0815-0.3036h0.0211c-0.0492,0.5702-0.0738,1.0523-0.0738,1.4463v4.987h0.8807v-7.4338h-1.1075L84.1898,16.2878z"/>
		<path fill="#FFFFFF" d="M53.3118,23.164c-0.3575,0-0.6633,0.1148-0.9174,0.3444c-0.254,0.2296-0.3811,0.5165-0.3811,0.8609
			c0,0.3444,0.127,0.6283,0.3811,0.8519c0.254,0.2235,0.5598,0.3353,0.9174,0.3353c0.3701,0,0.6837-0.1163,0.9409-0.3489
			s0.3858-0.512,0.3858-0.8383c0-0.3444-0.1286-0.6313-0.3858-0.8609C53.9955,23.2788,53.6819,23.164,53.3118,23.164z"/>
		<rect x="52.2109" y="27.5048" fill="#FFFFFF" width="2.1829" height="9.2797"/>
		<path fill="#FFFFFF" d="M58.6232,25.493c-1.3267,1.2808-1.9901,2.9603-1.9901,5.0386c0,1.9333,0.5896,3.495,1.7689,4.6852
			s2.7475,1.7853,4.7045,1.7853c1.5117,0,2.7757-0.2537,3.7919-0.7612v-1.9937c-0.9346,0.58-2.0386,0.87-3.312,0.87
			c-1.38,0-2.4934-0.4244-3.3402-1.2732s-1.2702-1.9891-1.2702-3.421c0-1.5043,0.4532-2.7066,1.3596-3.6068
			c0.9064-0.9002,2.0904-1.3503,3.5519-1.3503c1.0977,0,2.1014,0.2598,3.0109,0.7794v-2.1387
			c-0.8594-0.3564-1.9414-0.5347-3.2461-0.5347C61.6263,23.5718,59.9499,24.2122,58.6232,25.493z"/>
		<rect x="69.2132" y="23.0462" fill="#FFFFFF" width="2.1923" height="13.7383"/>
		<path fill="#FFFFFF" d="M75.3479,23.164c-0.3575,0-0.6633,0.1148-0.9174,0.3444c-0.2541,0.2296-0.3811,0.5165-0.3811,0.8609
			c0,0.3444,0.127,0.6283,0.3811,0.8519c0.254,0.2235,0.5598,0.3353,0.9174,0.3353c0.3701,0,0.6837-0.1163,0.9409-0.3489
			s0.3858-0.512,0.3858-0.8383c0-0.3444-0.1286-0.6314-0.3858-0.8609C76.0316,23.2788,75.718,23.164,75.3479,23.164z"/>
		<rect x="74.247" y="27.5048" fill="#FFFFFF" width="2.1829" height="9.2797"/>
		<path fill="#FFFFFF" d="M83.2986,27.2873c-1.3173,0-2.4197,0.4546-3.3073,1.3639c-0.8876,0.9092-1.3314,2.0858-1.3314,3.5297
			c0,1.5285,0.403,2.7141,1.2091,3.5569c0.806,0.8428,1.9179,1.2642,3.3355,1.2642c1.4427,0,2.6032-0.2658,3.4814-0.7975v-1.6946
			c-0.8594,0.5921-1.8034,0.8881-2.8321,0.8881c-0.9158,0-1.6356-0.2326-2.1594-0.6978s-0.7982-1.1267-0.8233-1.9846h6.5675V31.909
			c0-1.45-0.3607-2.5827-1.082-3.3983C85.6352,27.6951,84.6159,27.2873,83.2986,27.2873z M80.871,31.2294
			c0.1004-0.7129,0.3685-1.2899,0.8044-1.7309c0.436-0.441,0.9677-0.6615,1.5948-0.6615c0.6398,0,1.1416,0.2099,1.5054,0.6298
			c0.3638,0.4199,0.5489,1.0074,0.5551,1.7626C85.3308,31.2294,80.871,31.2294,80.871,31.2294z"/>
		<path fill="#FFFFFF" d="M94.8718,27.2873c-1.3612,0-2.4025,0.586-3.1238,1.7581h-0.0376v-1.5406H89.518v9.2797h2.1923v-5.2923
			c0-0.731,0.2164-1.3367,0.6492-1.817c0.4328-0.4803,0.9817-0.7205,1.6466-0.7205c1.2734,0,1.91,0.867,1.91,2.6008v5.2289h2.1829
			v-5.6729c0-1.2385-0.276-2.1855-0.828-2.841C96.7191,27.6151,95.9193,27.2873,94.8718,27.2873z"/>
		<path fill="#FFFFFF" d="M103.5376,24.759l-2.1829,0.5981v2.1477h-1.6089v1.6493h1.6089v5.247c0,1.7279,0.9346,2.5918,2.804,2.5918
			c0.6963,0,1.2577-0.1027,1.6841-0.3081v-1.6674c-0.2697,0.2054-0.5896,0.3081-0.9597,0.3081c-0.483,0-0.828-0.1178-1.035-0.3534
			c-0.207-0.2356-0.3105-0.6283-0.3105-1.1781v-4.6398h2.3052v-1.6493h-2.3052V24.759z"/>
		<path fill="#FFFFFF" d="M129.1549,25.2883c-1.5203-1.1783-3.4475-1.7758-5.728-1.7758h-4.209h-0.2492v0.2492v13.0228v0.2492
			h0.2492h4.0566c2.3844,0,4.3647-0.6329,5.8858-1.881c1.5359-1.2601,2.3147-2.9571,2.3147-5.0436
			C131.475,28.1036,130.6944,26.4816,129.1549,25.2883z M127.4877,33.7538c-0.9992,0.8583-2.42,1.2935-4.2228,1.2935h-1.8933
			v-9.5398h1.9791c1.6944,0,3.0759,0.3959,4.106,1.1768c1.0229,0.7758,1.5201,1.9099,1.5201,3.467
			C128.9768,31.6931,128.4758,32.9052,127.4877,33.7538z"/>
		<path fill="#FFFFFF" d="M113.9044,29.9058c1.4827-0.6126,2.2327-1.6975,2.2327-3.2352c0-1.0024-0.4175-1.8286-1.241-2.4555
			c-0.8026-0.6112-1.8722-0.9212-3.1791-0.9212c-1.3224,0-2.4979,0.2581-3.4938,0.7672l-0.1358,0.0694v0.1525v1.5554v0.4688
			l0.3886-0.2621c0.8679-0.5854,1.8045-0.8822,2.784-0.8822c2.2092,0,2.4647,1.0813,2.4647,1.8946
			c0,1.3936-1.0803,2.0711-3.3027,2.0711h-1.1713h-0.2491v0.2492v1.362v0.2492h0.2491h1.2285c2.5298,0,3.7596,0.727,3.7596,2.2224
			c0,0.6624-0.2582,1.1758-0.7894,1.5696c-0.5471,0.4054-1.3093,0.611-2.2656,0.611c-1.2127,0-2.3156-0.3333-3.2781-0.9908
			l-0.3898-0.2662v0.472v1.7068v0.1491l0.1314,0.0705c0.8895,0.477,2.0665,0.7189,3.4983,0.7189
			c1.6349,0,2.9683-0.3788,3.9634-1.126c1.017-0.7637,1.5326-1.7841,1.5326-3.0326c0.0001-0.9099-0.3396-1.6804-1.0097-2.2902
			C115.172,30.3849,114.5932,30.0845,113.9044,29.9058z"/>
	</g>
</g>
</svg>
