<?xml version="1.0" encoding="UTF-8"?>
<svg width="16px" height="16px" viewBox="0 0 16 16" version="1.1" xmlns="http://www.w3.org/2000/svg" xmlns:xlink="http://www.w3.org/1999/xlink">
    <title>矩形</title>
    <g id="页面-1" stroke="none" stroke-width="1" fill="none" fill-rule="evenodd">
        <g id="banner-按钮修改" transform="translate(-294.000000, -278.000000)" fill-rule="nonzero">
            <g id="cloud-download" transform="translate(294.000000, 278.000000)">
                <rect id="矩形" fill="#000000" opacity="0" x="0" y="0" width="16" height="16"></rect>
                <path d="M12.433,4.88 C12.0572823,2.72459578 10.1857231,1.15177519 7.9978177,1.15276171 C5.80991226,1.15374917 3.93977291,2.72825767 3.566,4.884 C2.00393896,5.00604806 0.798019802,6.30817954 0.796,7.875 C0.79801298,9.47081207 2.04742351,10.7865358 3.641,10.871 L3.641,9.68 C2.98141611,9.63111125 2.40079072,9.22692215 2.12595464,8.6253358 C1.85111856,8.02374944 1.92568654,7.32023378 2.32052737,6.78962872 C2.7153682,6.25902366 3.36782315,5.98553287 4.023,6.076 L4.032,6.076 L4.047,6.078 L4.063,6.079 L4.135,6.079 L4.156,6.077 L4.166,6.077 L4.185,6.074 L4.195,6.072 L4.213,6.069 L4.225,6.066 L4.239,6.063 L4.254,6.059 L4.266,6.056 L4.283,6.05 L4.292,6.047 L4.311,6.04 L4.317,6.038 L4.337,6.029 L4.342,6.027 C4.34940543,6.02382761 4.35674052,6.02049348 4.364,6.017 L4.367,6.015 C4.37439828,6.01112023 4.38173259,6.0071197 4.389,6.003 L4.392,6.002 L4.414,5.989 L4.416,5.987 C4.42307929,5.98245338 4.43008032,5.97778603 4.437,5.973 L4.44,5.971 C4.44688493,5.96594537 4.45355733,5.96060745 4.46,5.955 L4.463,5.953 C4.46982086,5.94786232 4.47649037,5.94252672 4.483,5.937 L4.486,5.934 L4.503,5.919 L4.508,5.914 L4.523,5.899 L4.528,5.893 L4.542,5.878 L4.548,5.871 L4.56,5.855 L4.567,5.848 L4.577,5.833 L4.584,5.824 C4.58742375,5.81906087 4.59075763,5.81406005 4.594,5.809 L4.6,5.8 L4.61,5.784 L4.614,5.774 L4.624,5.759 L4.628,5.749 L4.636,5.733 L4.64,5.724 C4.64273427,5.71803028 4.64540111,5.71202989 4.648,5.706 L4.651,5.697 C4.65731116,5.68168342 4.66265499,5.66598591 4.667,5.65 L4.669,5.642 C4.67108617,5.63535949 4.67308634,5.62869226 4.675,5.622 L4.676,5.612 C4.67775293,5.6053552 4.67941974,5.59868797 4.681,5.592 L4.682,5.582 C4.68314918,5.57569112 4.68414945,5.56935603 4.685,5.563 L4.685,5.56 C4.687,5.559 4.685,5.555 4.687,5.552 L4.688,5.536 L4.689,5.52 L4.689,5.51 C4.75285966,3.72674684 6.21798525,2.31464431 8.00238048,2.31653113 C9.78677571,2.31841795 11.2489117,3.73361577 11.309,5.517 L11.309,5.537 L11.311,5.548 L11.312,5.56 L11.314,5.58 L11.315,5.586 C11.3164728,5.59370754 11.31814,5.60137665 11.32,5.609 L11.32,5.615 C11.321823,5.62304321 11.3238235,5.63104516 11.326,5.639 L11.328,5.645 C11.3298328,5.65237791 11.3318333,5.65971314 11.334,5.667 L11.336,5.674 L11.343,5.694 C11.3457807,5.70286921 11.3491208,5.71155328 11.353,5.72 L11.358,5.731 L11.365,5.746 L11.371,5.758 C11.3729006,5.76237852 11.3749011,5.76671298 11.377,5.771 L11.385,5.784 L11.391,5.795 L11.4,5.809 L11.406,5.819 L11.416,5.833 L11.422,5.842 L11.432,5.856 L11.439,5.864 C11.4422458,5.8687286 11.4455797,5.87339608 11.449,5.878 L11.457,5.886 L11.468,5.898 L11.477,5.907 C11.4834141,5.91391449 11.4900855,5.92058585 11.497,5.927 L11.508,5.937 L11.519,5.947 L11.529,5.955 L11.543,5.965 L11.551,5.972 L11.567,5.982 L11.575,5.988 L11.592,5.998 L11.598,6.002 C11.6042621,6.00578831 11.6105966,6.00945565 11.617,6.013 L11.623,6.016 L11.643,6.026 L11.648,6.029 L11.668,6.039 L11.674,6.041 L11.694,6.048 L11.701,6.051 L11.718,6.057 L11.728,6.06 L11.742,6.064 L11.757,6.068 L11.765,6.07 C11.7719586,6.07183585 11.7789607,6.07350301 11.786,6.075 L11.788,6.075 C11.832,6.083 11.878,6.087 11.922,6.085 L11.927,6.085 L11.95,6.084 L11.959,6.084 L11.972,6.082 L11.99,6.08 L11.991,6.08 C12.9851125,5.9612588 13.8872587,6.67088747 14.006,7.665 C14.1247412,8.65911254 13.4151125,9.56125876 12.421,9.68 L12.421,10.87 C14.0145765,10.7855358 15.263987,9.46981207 15.266,7.874 C15.263813,6.2829593 14.0214624,4.96956714 12.433,4.879 L12.433,4.88 Z M10.507,11.081 L8.563,11.081 L8.563,6.295 L7.437,6.295 L7.437,11.082 L5.494,11.082 C5.43719766,11.0819935 5.38533305,11.1142837 5.36027067,11.1652581 C5.33520829,11.2162324 5.34130864,11.2770221 5.376,11.322 L7.766,14.423 C7.82218895,14.4965418 7.90944948,14.5396864 8.002,14.5396864 C8.09455052,14.5396864 8.18181105,14.4965418 8.238,14.423 L10.626,11.321 C10.6606914,11.2760221 10.6667917,11.2152324 10.6417293,11.1642581 C10.6166669,11.1132837 10.5648023,11.0809935 10.508,11.081 L10.507,11.081 Z" id="形状" fill-opacity="0.85" fill="#FFFFFF"></path>
            </g>
        </g>
    </g>
</svg>