<?xml version="1.0" encoding="UTF-8"?>
<svg width="16px" height="16px" viewBox="0 0 16 16" version="1.1" xmlns="http://www.w3.org/2000/svg" xmlns:xlink="http://www.w3.org/1999/xlink">
    <title>矩形</title>
    <g id="页面-1" stroke="none" stroke-width="1" fill="none" fill-rule="evenodd">
        <g id="banner-按钮修改" transform="translate(-397.000000, -278.000000)" fill-rule="nonzero">
            <g id="code备份" transform="translate(397.000000, 278.000000)">
                <rect id="矩形" fill="#000000" opacity="0" x="0" y="0" width="16" height="16"></rect>
                <path d="M8.063,10.516 C8.063,10.584 8.116,10.641 8.18,10.641 L11.07,10.641 C11.134,10.641 11.187,10.584 11.187,10.516 L11.187,9.766 C11.187,9.696 11.134,9.641 11.07,9.641 L8.18,9.641 C8.116,9.641 8.063,9.697 8.063,9.766 L8.063,10.516 L8.063,10.516 Z M5.017,10.611 L8.017,8.095 C8.0451616,8.07106005 8.06139118,8.0359621 8.06139118,7.999 C8.06139118,7.9620379 8.0451616,7.92693995 8.017,7.903 L5.017,5.389 C4.98012708,5.35718526 4.92804477,5.3499005 4.88385781,5.37037738 C4.83967085,5.39085427 4.81156165,5.43530095 4.81199495,5.484 L4.81199495,6.464 C4.8118356,6.50107216 4.82881532,6.53613897 4.858,6.559 L6.573,8 L4.858,9.44 C4.82961147,9.46382467 4.81315152,9.49893923 4.813,9.536 L4.813,10.516 C4.813,10.622 4.936,10.68 5.017,10.611 L5.017,10.611 Z M13.75,1.75 L2.25,1.75 C1.97385763,1.75 1.75,1.97385763 1.75,2.25 L1.75,13.75 C1.75,14.0261424 1.97385763,14.25 2.25,14.25 L13.75,14.25 C14.0261424,14.25 14.25,14.0261424 14.25,13.75 L14.25,2.25 C14.25,1.97385763 14.0261424,1.75 13.75,1.75 Z M13.125,13.125 L2.875,13.125 L2.875,2.875 L13.125,2.875 L13.125,13.125 Z" id="形状" fill-opacity="0.85" fill="#FFFFFF"></path>
            </g>
        </g>
    </g>
</svg>